<svg width="70" height="70" viewBox="0 0 70 70" fill="none" xmlns="http://www.w3.org/2000/svg">
<path opacity="0.5" fill-rule="evenodd" clip-rule="evenodd" d="M35 62C49.9117 62 62 49.9117 62 35C62 20.0883 49.9117 8 35 8C20.0883 8 8 20.0883 8 35C8 49.9117 20.0883 62 35 62ZM35 70C54.33 70 70 54.33 70 35C70 15.67 54.33 0 35 0C15.67 0 0 15.67 0 35C0 54.33 15.67 70 35 70Z" fill="white"/>
<path fill-rule="evenodd" clip-rule="evenodd" d="M13.6189 18.4645C13.7113 18.3664 13.8 18.2641 13.8848 18.1578C16.728 14.5932 20.4424 11.7885 24.6972 10.0328C30.1896 7.76631 36.276 7.37416 42.0138 8.91706C47.7516 10.4599 52.8205 13.8518 56.4354 18.5672C59.2359 22.2201 61.0426 26.5094 61.7146 31.0192C61.7347 31.1537 61.7602 31.2867 61.7909 31.4179C61.8301 31.5858 61.8779 31.7507 61.9337 31.9119C62.5425 33.6712 64.1082 35 66.0048 35C68.2113 35 70.0237 33.2054 69.7723 31.0133C69.7274 30.6215 69.6759 30.2309 69.6179 29.8415C69.6056 29.7588 69.593 29.6762 69.5801 29.5936C68.6806 23.8404 66.3544 18.3723 62.7769 13.7057C58.0925 7.59527 51.524 3.2 44.0887 1.20065C36.6535 -0.798687 28.7664 -0.290522 21.6492 2.64644C16.2136 4.88945 11.4588 8.45349 7.79517 12.9797C7.74259 13.0446 7.69023 13.1098 7.6381 13.1751C7.39262 13.4829 7.15215 13.795 6.91681 14.1114C5.59994 15.8819 6.26778 18.3434 8.17672 19.45C9.81761 20.4013 11.8385 20.0369 13.2476 18.8202C13.3768 18.7087 13.5008 18.59 13.6189 18.4645Z" fill="white"/>
</svg>
